<svg width="10" height="10" viewBox="0 0 10 10" fill="none" xmlns="http://www.w3.org/2000/svg">
<path fill-rule="evenodd" clip-rule="evenodd" d="M9.12731 0.359242C8.67332 -0.0947422 7.93727 -0.0947418 7.48328 0.359243L4.74334 3.09918L2.00322 0.359063C1.54924 -0.0949219 0.813184 -0.0949222 0.359199 0.359062C-0.0947853 0.813047 -0.0947846 1.5491 0.3592 2.00309L3.09932 4.74321L0.359185 7.48334C-0.0947991 7.93733 -0.0947994 8.67338 0.359185 9.12737C0.813169 9.58135 1.54922 9.58135 2.00321 9.12736L4.74334 6.38723L7.4833 9.12719C7.93728 9.58117 8.67334 9.58117 9.12732 9.12719C9.58131 8.6732 9.58131 7.93715 9.12732 7.48316L6.38737 4.74321L9.12731 2.00327C9.58129 1.54928 9.58129 0.813227 9.12731 0.359242Z" fill="white"/>
</svg>
