<svg width="10" height="10" viewBox="0 0 10 10" fill="none" xmlns="http://www.w3.org/2000/svg">
<path fill-rule="evenodd" clip-rule="evenodd" d="M9.12728 0.359242C8.67329 -0.0947422 7.93724 -0.0947418 7.48325 0.359243L4.74331 3.09918L2.00319 0.359063C1.54921 -0.0949219 0.813153 -0.0949222 0.359169 0.359062C-0.0948158 0.813047 -0.0948152 1.5491 0.359169 2.00309L3.09929 4.74321L0.359155 7.48334C-0.0948296 7.93733 -0.0948299 8.67338 0.359154 9.12737C0.813139 9.58135 1.54919 9.58135 2.00318 9.12736L4.74331 6.38723L7.48327 9.12719C7.93725 9.58117 8.67331 9.58117 9.12729 9.12719C9.58128 8.6732 9.58128 7.93715 9.12729 7.48316L6.38734 4.74321L9.12728 2.00327C9.58126 1.54928 9.58126 0.813227 9.12728 0.359242Z" fill="#0969FE"/>
</svg>
