<svg width="69" height="69" viewBox="0 0 69 69" fill="none" xmlns="http://www.w3.org/2000/svg">
<circle cx="34.5" cy="34.5" r="20.7" fill="#D9D9D9"/>
<circle cx="34.5" cy="34.5" r="26.5692" stroke="#D9D9D9"/>
<circle cx="34.5" cy="34.5" r="34" stroke="#D9D9D9"/>
<path d="M34.434 26.632C33.698 26.632 33.122 26.44 32.706 26.056C32.3007 25.6613 32.098 25.1173 32.098 24.424C32.098 23.752 32.3007 23.2187 32.706 22.824C33.122 22.4187 33.698 22.216 34.434 22.216C35.1593 22.216 35.73 22.4187 36.146 22.824C36.562 23.2187 36.77 23.752 36.77 24.424C36.77 25.1173 36.562 25.6613 36.146 26.056C35.73 26.44 35.1593 26.632 34.434 26.632ZM32.546 45V29.416H36.322V45H32.546Z" fill="#0969FE"/>
</svg>
